<svg id="Capa_1" enable-background="new 0 0 512 512" height="512" viewBox="0 0 512 512" width="512" xmlns="http://www.w3.org/2000/svg"><g><path d="m353.5 59.999v15h143.5v15h-143.5v15h143.5v45h-143.5v15h113.5v60.001h-113.501v218.327h113.501v23.673h-56.75v15h86.75v15h-482v-15h380.25v-15h-56.75v-242h-165v242h-128.5v-23.673h113.501v-218.327h-113.501v-22.5h-15v264.5h-30v45h512v-45h-30v-302.001h30v-67.5-7.5-30zm-308.5 368.328v-71.664h41.75v-15h-41.75v-14.999h98.501v14.999h-41.75v15h41.75v71.664zm98.501-188.327v71.664h-98.501v-71.664zm44.999 30h60v-15h-60v-15h135v15h-60v15h60v197h-135zm278.5-30v71.664h-41.75v15h41.75v14.999h-98.501v-14.999h41.75v-15h-41.75v-71.664zm-98.501 188.327v-71.664h98.501v71.664z"/><path d="m323.5 22.5v142.5h-60v15h75v-157.5c0-12.406-10.093-22.5-22.5-22.5h-52.5v15h52.5c4.136 0 7.5 3.364 7.5 7.5z"/><path d="m248.5 165h-60v-142.5c0-4.136 3.364-7.5 7.5-7.5h52.5v-15h-52.5c-12.406 0-22.5 10.094-22.5 22.5v157.5h75z"/><path d="m30 187.5h15v-22.501h113.501v-15h-143.501v-45h143.501v-15h-143.501v-15h143.501v-15h-158.501v30 7.5 67.5h30z"/><path d="m60 398.328h15v15h-15z"/><path d="m113.501 255h15v15h-15z"/><path d="m203.501 437.001h15v15h-15z"/><path d="m383.499 398.328h15v15h-15z"/><path d="m293.5 284.999h15v15h-15z"/><path d="m437 255h15v15h-15z"/><path d="m233.5 353.5h15v30h-15z"/><path d="m263.5 353.5h15v30h-15z"/><path d="m284.78 118.5 7.5-42h16.22v-15h-28.779l-7.5 42h-32.442l-4.821-27h28.543v-15h-46.459l10.178 57z"/><path d="m203.5 135h15v15h-15z"/><path d="m293.5 30h15v15h-15z"/></g></svg>